<svg width="180" height="40" viewBox="0 0 180 40" fill="none" xmlns="http://www.w3.org/2000/svg">
<mask id="mask0_668_23655" style="mask-type:luminance" maskUnits="userSpaceOnUse" x="0" y="4" width="172" height="33">
<path d="M171.462 4.44531H0.726562V36.112H171.462V4.44531Z" fill="white"/>
</mask>
<g mask="url(#mask0_668_23655)">
</g>
<g clip-path="url(#clip0_668_23655)">
<mask id="mask1_668_23655" style="mask-type:luminance" maskUnits="userSpaceOnUse" x="0" y="4" width="178" height="33">
<path d="M177.143 4.00391H0V36.0039H177.143V4.00391Z" fill="white"/>
</mask>
<g mask="url(#mask1_668_23655)">
<path d="M59.2545 20.7722C59.2545 25.7142 55.7174 27.7559 52.1158 27.7559C48.4979 27.7559 44.9766 25.7142 44.9766 20.7722V11.8281H48.3533V20.4644C48.3533 23.4621 50.0095 24.5638 52.1158 24.5638C54.2221 24.5638 55.8783 23.4621 55.8783 20.4644V11.8281H59.2545V20.7722Z" fill="#111F68"/>
<path d="M65.9419 6.61328H62.4688V27.3535H65.9419V6.61328Z" fill="#111F68"/>
<path d="M76.4801 14.5205H72.4921V22.298C72.4921 24.372 73.843 24.3397 76.4801 24.2101V27.3535C71.1738 28.0017 69.0195 26.5434 69.0195 22.298V6.61328H72.4921V11.1504H76.4801V14.5205Z" fill="#111F68"/>
<path d="M111.211 6.61328H107.738V27.3535H111.211V6.61328Z" fill="#111F68"/>
<path d="M138.621 14.5205H134.633V22.298C134.633 24.372 135.984 24.3397 138.621 24.2101V27.3535C133.314 28.0017 131.16 26.5434 131.16 22.298V6.61328H134.633V11.1504H138.621V14.5205Z" fill="#111F68"/>
<path d="M141.176 12.9416H144.651V27.3519H141.176V12.9416ZM141.339 9.86299C140.47 8.95562 140.47 7.59444 141.339 6.71959C142.205 5.81222 143.622 5.81222 144.491 6.71959C145.357 7.59444 145.357 8.95562 144.457 9.86299C143.588 10.7378 142.239 10.7378 141.339 9.86299Z" fill="#111F68"/>
<path d="M125.675 11.1523H129.373L123.199 27.8741C121.316 32.8798 119.887 33.8369 115.321 33.8369L115.352 30.5639C117.539 30.6932 118.761 29.624 119.629 27.3879L119.79 27.0637L112.973 11.1523H116.767L121.559 22.9157L125.675 11.1523Z" fill="#111F68"/>
<path d="M149.58 25.3137C147.972 23.6608 147.168 21.6517 147.168 19.2536C147.168 16.8232 147.972 14.8138 149.58 13.1937C151.22 11.5408 153.246 10.7305 155.658 10.7305C158.777 10.7305 161.542 12.3511 162.829 14.9111L159.838 16.661C159.098 15.1057 157.555 14.1658 155.625 14.1658C154.21 14.1658 153.021 14.6519 152.056 15.6241C151.123 16.5962 150.641 17.7953 150.641 19.2536C150.641 20.7118 151.123 21.9109 152.056 22.8833C153.021 23.8552 154.21 24.3416 155.625 24.3416C157.523 24.3416 159.131 23.3692 159.903 21.8461L162.893 23.5638C161.51 26.1563 158.777 27.7764 155.658 27.7764C153.246 27.7764 151.22 26.9664 149.58 25.3137Z" fill="#111F68"/>
<path d="M171.493 17.7302C173.969 18.2811 177.184 19.3184 177.12 22.7857C177.12 24.3413 176.509 25.5729 175.319 26.4477C174.13 27.3226 172.65 27.7764 170.85 27.7764C167.666 27.7764 165.318 26.3507 164.289 23.9848L167.28 22.2349C167.827 23.7904 169.017 24.5682 170.85 24.5682C172.682 24.5682 173.583 23.9522 173.583 22.7532C173.583 21.7162 172.232 21.1006 170.528 20.6793C168.116 20.0636 164.868 19.0914 164.932 15.6886C164.932 14.1978 165.479 12.999 166.604 12.0916C167.73 11.1842 169.145 10.7305 170.817 10.7305C173.487 10.7305 175.641 11.9943 176.767 14.1008L173.84 15.7534C173.294 14.5221 172.264 13.9064 170.817 13.9064C169.499 13.9064 168.47 14.4898 168.47 15.6241C168.47 16.6933 169.821 17.2442 171.493 17.7302Z" fill="#111F68"/>
<path d="M96.5811 24.4386C98.0285 24.4386 99.2502 23.9523 100.215 22.9804C101.18 21.9757 101.662 20.7441 101.662 19.2536C101.662 17.7628 101.18 16.5312 100.215 15.559C99.2502 14.5546 98.0285 14.0685 96.5811 14.0685C95.1342 14.0685 93.9119 14.5546 92.9473 15.559C91.9828 16.5312 91.5005 17.7628 91.5005 19.2536C91.5005 20.7441 91.9828 21.9757 92.9473 22.9804C93.9119 23.9523 95.1342 24.4386 96.5811 24.4386ZM101.662 11.1521H105.135V27.3552H101.662V25.0218C100.344 26.8691 98.4788 27.7765 96.0348 27.7765C93.8159 27.7765 91.9508 26.9661 90.3748 25.3138C88.7988 23.6609 88.0273 21.6192 88.0273 19.2536C88.0273 16.8554 88.7988 14.8464 90.3748 13.1934C91.9508 11.5408 93.8159 10.7305 96.0348 10.7305C98.4788 10.7305 100.344 11.6381 101.662 13.4529V11.1521Z" fill="#111F68"/>
<path d="M82.4174 14.0871C83.2626 12.1306 84.8912 11.1523 87.2397 11.1523V14.8445C85.9563 14.7498 84.8289 15.0654 83.858 15.7913C82.8871 16.4855 82.4174 17.6531 82.4174 19.2626V27.2153H79.0352V11.4364H82.4174V14.0871Z" fill="#111F68"/>
<path d="M19.63 12.763L19.6273 17.2274C19.6448 23.3199 14.713 28.2903 8.6868 28.281C6.29309 28.2764 4.11398 27.5415 2.34766 26.2566C5.51752 31.9975 11.5945 35.8761 18.5024 35.8826C28.5379 35.8773 36.8303 27.6461 36.9847 17.5248L36.9826 17.4826C36.9917 17.2494 36.981 12.9338 36.9922 12.7428C36.9777 7.94071 33.0806 3.99303 28.3153 4.00393C23.5278 3.9948 19.6133 7.9187 19.63 12.763Z" fill="url(#paint0_linear_668_23655)"/>
<path d="M8.67659 8.49609C3.89242 8.49609 0 12.4186 0 17.24C0 22.0609 3.89242 25.9834 8.67659 25.9834C13.461 25.9834 17.3532 22.0609 17.3532 17.24C17.3532 12.4186 13.461 8.49609 8.67659 8.49609Z" fill="#0B23A9"/>
</g>
</g>
<defs>
<linearGradient id="paint0_linear_668_23655" x1="10.4719" y1="35.5791" x2="30.5034" y2="13.5601" gradientUnits="userSpaceOnUse">
<stop stop-color="#09DBF0"/>
<stop offset="1" stop-color="#0B23A9"/>
</linearGradient>
<clipPath id="clip0_668_23655">
<rect width="177.143" height="32" fill="white" transform="translate(0 4)"/>
</clipPath>
</defs>
</svg>
